<svg width="16" height="16" viewBox="0 0 16 16" xmlns="http://www.w3.org/2000/svg"><g fill="none" fill-rule="evenodd"><path d="M5 1h4.586L13 4.414V14a1 1 0 0 1-1 1H5a2 2 0 0 1-2-2V3a2 2 0 0 1 2-2z" fill="#3D4757"/><path d="M9 1v2.5A1.5 1.5 0 0 0 10.5 5H13" fill="#F2F4F7"/><path d="M5 9.2h1.225c.768 0 1.275.437 1.275 1.103 0 .676-.507 1.117-1.275 1.117H5V9.2zm1.144 1.633c.327 0 .526-.19.526-.53 0-.333-.2-.519-.526-.519h-.207v1.049h.207zm1.936.587V9.2h1.187c.74 0 1.22.411 1.22 1.046 0 .638-.48 1.058-1.22 1.058h-.25v.616H8.08zm1.106-.7c.31 0 .5-.174.5-.474 0-.291-.19-.462-.5-.462h-.17v.936h.17zm1.66.7V9.2h1.785v.594h-.848v.344h.763v.586h-.763v.696h-.937z" fill="#FFF"/></g></svg>
