<svg width="16" height="16" viewBox="0 0 16 16" fill="none" xmlns="http://www.w3.org/2000/svg">
  <path d="M4 1.5H9.5L13 5V13.5C13 14.0523 12.5523 14.5 12 14.5H4C3.44772 14.5 3 14.0523 3 13.5V2.5C3 1.94772 3.44772 1.5 4 1.5Z" stroke="#3D4757" stroke-width="1.2" stroke-linejoin="round"/>
  <path d="M9.5 1.5V5H13" stroke="#3D4757" stroke-width="1.2" stroke-linejoin="round"/>
  <path d="M4.8 11.4V7.6H6.17C7 7.6 7.46 8.04 7.46 8.71C7.46 9.39 6.99 9.84 6.17 9.84H5.64V11.4H4.8ZM5.64 9.15H6.11C6.46 9.15 6.62 8.99 6.62 8.71C6.62 8.44 6.46 8.29 6.11 8.29H5.64V9.15Z" fill="#D94F4F"/>
  <path d="M8 11.4V7.6H9.38C10.52 7.6 11.17 8.27 11.17 9.49C11.17 10.72 10.52 11.4 9.38 11.4H8ZM8.84 10.7H9.33C9.92 10.7 10.31 10.31 10.31 9.49C10.31 8.68 9.92 8.29 9.33 8.29H8.84V10.7Z" fill="#D94F4F"/>
  <path d="M11.84 11.4V7.6H14V8.29H12.68V9.17H13.87V9.86H12.68V11.4H11.84Z" fill="#D94F4F"/>
</svg>
